# xmcd CD database file
#
# Track frame offsets:
#	150
#	2330
#	31842
#	63882
#	110217
#	113257
#	143507
#	178072
#	203682
#	235335
#	279357
#
# Disc length: 4074 seconds
#
# Revision: 0
# Processed by: cddbd v1.5.1PL0 Copyright (c) Steve Scherf et al.
# Submitted via: CDex 1.51
#
DISCID=840fe80b
DTITLE=David and Roselyn - Praha Live
DYEAR=1997
DGENRE=Jazz
TTITLE0=Czech Intro
TTITLE1=Just can't be satisfied
TTITLE2=Love in vain
TTITLE3=When I get drunk
TTITLE4=Mbira intro
TTITLE5=Joe Turner
TTITLE6=I'm gonna sit right down and write myself a letter
TTITLE7=Hocchi Coochie Woman
TTITLE8=Hard Hearted Hannah
TTITLE9=House of rising sun
TTITLE10=Saints
EXTD=YEAR: 1997
EXTT0=
EXTT1=
EXTT2=
EXTT3=
EXTT4=
EXTT5=
EXTT6=
EXTT7=
EXTT8=
EXTT9=
EXTT10=
PLAYORDER=
